<svg width="295" height="46" viewBox="0 0 295 46" fill="none" xmlns="http://www.w3.org/2000/svg">
<path d="M25.3125 30.5938C24.875 31.1146 24.3125 31.6562 23.625 32.2188C22.9583 32.7604 22.125 33.2604 21.125 33.7188C20.1458 34.1771 18.9896 34.5625 17.6562 34.875C16.3229 35.1667 14.7812 35.3125 13.0312 35.3125C10.8021 35.3125 8.89583 35.1042 7.3125 34.6875C5.75 34.25 4.46875 33.5833 3.46875 32.6875C2.46875 31.7708 1.73958 30.6146 1.28125 29.2188C0.822917 27.8021 0.59375 26.1042 0.59375 24.125V13.3125C0.59375 13.0417 0.604167 12.7708 0.625 12.5C0.666667 12.2292 0.729167 11.9896 0.8125 11.7812C0.895833 11.5729 1.02083 11.4062 1.1875 11.2812C1.35417 11.1354 1.57292 11.0625 1.84375 11.0625C2.15625 11.0625 2.39583 11.1354 2.5625 11.2812C2.72917 11.4062 2.84375 11.5729 2.90625 11.7812C2.98958 11.9896 3.04167 12.2292 3.0625 12.5C3.08333 12.7708 3.09375 13.0417 3.09375 13.3125V24.125C3.09375 25.875 3.23958 27.3438 3.53125 28.5312C3.82292 29.7188 4.33333 30.6771 5.0625 31.4062C5.8125 32.1354 6.82292 32.6667 8.09375 33C9.38542 33.3125 11.0312 33.4688 13.0312 33.4688C14.4896 33.4688 15.8333 33.3438 17.0625 33.0938C18.3125 32.8438 19.4479 32.5312 20.4688 32.1562C21.4896 31.7604 22.4062 31.3229 23.2188 30.8438C24.0312 30.3646 24.7396 29.8958 25.3438 29.4375V13.3125C25.3438 13.0417 25.3542 12.7708 25.375 12.5C25.3958 12.2292 25.4375 11.9896 25.5 11.7812C25.5833 11.5729 25.6979 11.4062 25.8438 11.2812C26.0104 11.1354 26.2292 11.0625 26.5 11.0625C26.8125 11.0625 27.0521 11.1354 27.2188 11.2812C27.4062 11.4062 27.5417 11.5729 27.625 11.7812C27.7292 11.9896 27.7917 12.2292 27.8125 12.5C27.8333 12.7708 27.8438 13.0417 27.8438 13.3125V32.8125C27.8438 33.0833 27.8229 33.3542 27.7812 33.625C27.7604 33.875 27.7083 34.1042 27.625 34.3125C27.5417 34.5208 27.4167 34.6875 27.25 34.8125C27.1042 34.9375 26.9062 35 26.6562 35C26.0729 35 25.6979 34.8125 25.5312 34.4375C25.3854 34.0417 25.3125 33.5938 25.3125 33.0938V32.8125V30.5938ZM66.1838 10.4375C68.0588 10.4375 69.8296 10.6354 71.4963 11.0312C73.1838 11.4062 74.6525 12.0625 75.9025 13C77.1733 13.9375 78.1733 15.1875 78.9025 16.75C79.6525 18.3125 80.0275 20.2708 80.0275 22.625C80.0275 24.9583 79.715 26.9375 79.09 28.5625C78.4858 30.1667 77.59 31.4688 76.4025 32.4688C75.2358 33.4688 73.7879 34.1979 72.0588 34.6562C70.3504 35.0938 68.3921 35.3125 66.1838 35.3125C64.4963 35.3125 62.9442 35.2083 61.5275 35C60.1108 34.7917 58.8192 34.5312 57.6525 34.2188C56.5067 33.8854 55.4754 33.5208 54.5588 33.125C53.6421 32.7292 52.8296 32.3438 52.1213 31.9688L52.0588 43.3438C52.0588 43.6146 52.0483 43.875 52.0275 44.125C52.0275 44.3958 51.9858 44.6354 51.9025 44.8438C51.8192 45.0521 51.6942 45.2188 51.5275 45.3438C51.3817 45.4688 51.1525 45.5312 50.84 45.5312C50.5275 45.5312 50.2879 45.4583 50.1213 45.3125C49.9754 45.1875 49.8608 45.0104 49.7775 44.7812C49.6942 44.5729 49.6421 44.3229 49.6213 44.0312C49.6213 43.7604 49.6213 43.4688 49.6213 43.1562V12.5938C49.6213 11.9271 49.7463 11.5104 49.9963 11.3438C50.2463 11.1562 50.5171 11.0625 50.8088 11.0625C51.1629 11.0625 51.4442 11.1562 51.6525 11.3438C51.8608 11.5104 51.965 11.9271 51.965 12.5938V16.7188C52.215 15.8438 52.6421 15.0833 53.2463 14.4375C53.8504 13.7708 54.5588 13.2083 55.3713 12.75C56.1838 12.2708 57.0588 11.8854 57.9963 11.5938C58.9546 11.2812 59.9129 11.0417 60.8713 10.875C61.8504 10.7083 62.7983 10.5938 63.715 10.5312C64.6317 10.4688 65.4546 10.4375 66.1838 10.4375ZM66.1838 12.2812C64.9338 12.3021 63.5692 12.4062 62.09 12.5938C60.6108 12.7604 59.1942 13.0729 57.84 13.5312C56.4858 13.9896 55.2879 14.625 54.2463 15.4375C53.2046 16.25 52.4963 17.3125 52.1213 18.625V30.625C53.0171 30.9583 53.9754 31.3021 54.9963 31.6562C56.0379 31.9896 57.1421 32.2917 58.3088 32.5625C59.4754 32.8333 60.715 33.0521 62.0275 33.2188C63.34 33.3854 64.7254 33.4688 66.1838 33.4688C68.1838 33.4688 69.8921 33.2604 71.3088 32.8438C72.7463 32.4271 73.9233 31.7812 74.84 30.9062C75.7775 30.0104 76.4546 28.8854 76.8713 27.5312C77.3088 26.1562 77.5275 24.5208 77.5275 22.625C77.5275 20.6667 77.2254 19.0208 76.6213 17.6875C76.0379 16.3542 75.2358 15.2917 74.215 14.5C73.1942 13.7083 71.9858 13.1458 70.59 12.8125C69.215 12.4583 67.7463 12.2812 66.1838 12.2812ZM115.368 12.2812C112.972 12.2812 110.93 12.4792 109.243 12.875C107.555 13.2708 106.17 13.9062 105.086 14.7812C104.024 15.6354 103.243 16.7396 102.743 18.0938C102.243 19.4479 101.993 21.0729 101.993 22.9688C101.993 24.8854 102.263 26.5104 102.805 27.8438C103.368 29.1771 104.201 30.2604 105.305 31.0938C106.43 31.9271 107.826 32.5312 109.493 32.9062C111.159 33.2812 113.107 33.4688 115.336 33.4688C116.336 33.4688 117.347 33.3958 118.368 33.25C119.409 33.1042 120.399 32.9271 121.336 32.7188C122.274 32.4896 123.138 32.2396 123.93 31.9688C124.722 31.6979 125.368 31.4375 125.868 31.1875C126.18 31.0833 126.399 31.0312 126.524 31.0312C126.795 31.0312 127.003 31.1146 127.149 31.2812C127.315 31.4271 127.399 31.6146 127.399 31.8438C127.399 32.0104 127.347 32.1875 127.243 32.375C127.138 32.5417 126.972 32.6875 126.743 32.8125C124.909 33.75 123.013 34.4062 121.055 34.7812C119.097 35.1354 117.201 35.3125 115.368 35.3125C112.993 35.3125 110.826 35.125 108.868 34.75C106.93 34.375 105.263 33.7188 103.868 32.7812C102.493 31.8438 101.42 30.5833 100.649 29C99.8779 27.4167 99.4925 25.4062 99.4925 22.9688C99.4925 20.5521 99.8467 18.5417 100.555 16.9375C101.263 15.3333 102.295 14.0521 103.649 13.0938C105.003 12.1146 106.659 11.4271 108.618 11.0312C110.597 10.6354 112.847 10.4375 115.368 10.4375C117.201 10.4375 119.097 10.625 121.055 11C123.013 11.3542 124.909 12 126.743 12.9375C126.972 13.0625 127.138 13.2188 127.243 13.4062C127.347 13.5729 127.399 13.7396 127.399 13.9062C127.399 14.1354 127.315 14.3333 127.149 14.5C127.003 14.6458 126.795 14.7188 126.524 14.7188C126.399 14.7188 126.18 14.6667 125.868 14.5625C125.368 14.3125 124.722 14.0521 123.93 13.7812C123.138 13.5104 122.274 13.2708 121.336 13.0625C120.399 12.8333 119.409 12.6458 118.368 12.5C117.347 12.3542 116.347 12.2812 115.368 12.2812ZM161.301 43.5938C163.447 43.5938 165.239 43.3542 166.676 42.875C168.114 42.4167 169.26 41.6458 170.114 40.5625C170.989 39.5 171.603 38.0729 171.958 36.2812C172.333 34.5104 172.52 32.3125 172.52 29.6875C172.291 30.5417 171.916 31.2708 171.395 31.875C170.874 32.4792 170.249 32.9896 169.52 33.4062C168.812 33.8229 168.03 34.1562 167.176 34.4062C166.343 34.6562 165.489 34.8542 164.614 35C163.739 35.125 162.874 35.2083 162.02 35.25C161.187 35.2917 160.416 35.3125 159.708 35.3125C157.458 35.3125 155.562 35.1146 154.02 34.7188C152.478 34.3021 151.228 33.6146 150.27 32.6562C149.312 31.6771 148.614 30.3958 148.176 28.8125C147.76 27.2292 147.551 25.2604 147.551 22.9062V13.3125C147.551 13.0417 147.562 12.7708 147.583 12.5C147.603 12.2292 147.655 11.9896 147.739 11.7812C147.822 11.5729 147.937 11.4062 148.083 11.2812C148.249 11.1354 148.478 11.0625 148.77 11.0625C149.083 11.0625 149.322 11.1354 149.489 11.2812C149.655 11.4062 149.78 11.5729 149.864 11.7812C149.947 11.9896 149.999 12.2292 150.02 12.5C150.041 12.7708 150.051 13.0417 150.051 13.3125V22.9062C150.051 24.9479 150.176 26.6458 150.426 28C150.697 29.3542 151.187 30.4375 151.895 31.25C152.603 32.0625 153.583 32.6354 154.833 32.9688C156.103 33.3021 157.728 33.4688 159.708 33.4688C160.895 33.4688 162.166 33.3854 163.52 33.2188C164.874 33.0521 166.155 32.75 167.364 32.3125C168.593 31.875 169.666 31.2708 170.583 30.5C171.52 29.7292 172.166 28.7292 172.52 27.5V13.3125C172.52 13.0417 172.53 12.7708 172.551 12.5C172.593 12.2292 172.655 11.9896 172.739 11.7812C172.822 11.5729 172.937 11.4062 173.083 11.2812C173.249 11.1354 173.458 11.0625 173.708 11.0625C174.02 11.0625 174.26 11.1354 174.426 11.2812C174.593 11.4062 174.718 11.5729 174.801 11.7812C174.905 11.9896 174.968 12.2292 174.989 12.5C175.01 12.7708 175.02 13.0417 175.02 13.3125V28.6562C175.02 31.8646 174.76 34.5417 174.239 36.6875C173.739 38.8333 172.937 40.5521 171.833 41.8438C170.728 43.1562 169.312 44.0833 167.583 44.625C165.853 45.1667 163.76 45.4375 161.301 45.4375C159.551 45.4375 158.072 45.3438 156.864 45.1562C155.676 44.9688 154.666 44.7292 153.833 44.4375C153.02 44.1667 152.343 43.8542 151.801 43.5C151.26 43.1458 150.791 42.8125 150.395 42.5C150.228 42.3333 150.145 42.1354 150.145 41.9062C150.145 41.6146 150.218 41.3646 150.364 41.1562C150.53 40.9688 150.78 40.875 151.114 40.875C151.28 40.875 151.458 40.9375 151.645 41.0625C152.041 41.3542 152.499 41.6458 153.02 41.9375C153.562 42.25 154.208 42.5208 154.958 42.75C155.728 43 156.624 43.1979 157.645 43.3438C158.687 43.5104 159.905 43.5938 161.301 43.5938ZM210.985 12.2812C208.589 12.2812 206.548 12.4792 204.86 12.875C203.173 13.2708 201.787 13.9062 200.704 14.7812C199.641 15.6354 198.86 16.7396 198.36 18.0938C197.86 19.4479 197.61 21.0729 197.61 22.9688C197.61 24.8854 197.881 26.5104 198.423 27.8438C198.985 29.1771 199.818 30.2604 200.923 31.0938C202.048 31.9271 203.443 32.5312 205.11 32.9062C206.777 33.2812 208.725 33.4688 210.954 33.4688C211.954 33.4688 212.964 33.3958 213.985 33.25C215.027 33.1042 216.016 32.9271 216.954 32.7188C217.891 32.4896 218.756 32.2396 219.548 31.9688C220.339 31.6979 220.985 31.4375 221.485 31.1875C221.798 31.0833 222.016 31.0312 222.141 31.0312C222.412 31.0312 222.62 31.1146 222.766 31.2812C222.933 31.4271 223.016 31.6146 223.016 31.8438C223.016 32.0104 222.964 32.1875 222.86 32.375C222.756 32.5417 222.589 32.6875 222.36 32.8125C220.527 33.75 218.631 34.4062 216.673 34.7812C214.714 35.1354 212.818 35.3125 210.985 35.3125C208.61 35.3125 206.443 35.125 204.485 34.75C202.548 34.375 200.881 33.7188 199.485 32.7812C198.11 31.8438 197.037 30.5833 196.266 29C195.495 27.4167 195.11 25.4062 195.11 22.9688C195.11 20.5521 195.464 18.5417 196.173 16.9375C196.881 15.3333 197.912 14.0521 199.266 13.0938C200.62 12.1146 202.277 11.4271 204.235 11.0312C206.214 10.6354 208.464 10.4375 210.985 10.4375C212.818 10.4375 214.714 10.625 216.673 11C218.631 11.3542 220.527 12 222.36 12.9375C222.589 13.0625 222.756 13.2188 222.86 13.4062C222.964 13.5729 223.016 13.7396 223.016 13.9062C223.016 14.1354 222.933 14.3333 222.766 14.5C222.62 14.6458 222.412 14.7188 222.141 14.7188C222.016 14.7188 221.798 14.6667 221.485 14.5625C220.985 14.3125 220.339 14.0521 219.548 13.7812C218.756 13.5104 217.891 13.2708 216.954 13.0625C216.016 12.8333 215.027 12.6458 213.985 12.5C212.964 12.3542 211.964 12.2812 210.985 12.2812ZM246.075 32.8125C246.075 33.4167 246.002 33.9375 245.856 34.375C245.71 34.7917 245.377 35 244.856 35C244.544 35 244.304 34.9479 244.137 34.8438C243.971 34.7188 243.846 34.5625 243.762 34.375C243.679 34.1667 243.627 33.9375 243.606 33.6875C243.585 33.4375 243.575 33.1667 243.575 32.875V2.4375C243.575 2.125 243.585 1.83333 243.606 1.5625C243.627 1.29167 243.679 1.0625 243.762 0.875C243.867 0.666667 244.002 0.5 244.169 0.375C244.356 0.25 244.606 0.1875 244.919 0.1875C245.169 0.1875 245.367 0.25 245.512 0.375C245.679 0.5 245.804 0.666667 245.887 0.875C245.971 1.08333 246.023 1.32292 246.044 1.59375C246.065 1.84375 246.075 2.10417 246.075 2.375V32.8125ZM281.665 12.2812C279.728 12.2812 278.009 12.4479 276.509 12.7812C275.009 13.1146 273.728 13.6562 272.665 14.4062C271.623 15.1354 270.811 16.0833 270.228 17.25C269.644 18.4167 269.311 19.8438 269.228 21.5312H292.79V19.8438C292.79 18.8021 292.592 17.8229 292.196 16.9062C291.821 15.9896 291.196 15.1875 290.321 14.5C289.446 13.8125 288.3 13.2708 286.884 12.875C285.467 12.4792 283.728 12.2812 281.665 12.2812ZM280.04 33.4688C282.019 33.4688 283.748 33.3438 285.228 33.0938C286.707 32.8438 287.978 32.5417 289.04 32.1875C290.103 31.8333 290.967 31.4688 291.634 31.0938C292.321 30.7188 292.853 30.4062 293.228 30.1562C293.353 30.1146 293.436 30.0938 293.478 30.0938C293.707 30.0938 293.915 30.2083 294.103 30.4375C294.311 30.6458 294.415 30.875 294.415 31.125C294.415 31.3542 294.311 31.5417 294.103 31.6875C293.915 31.875 293.509 32.1667 292.884 32.5625C292.28 32.9583 291.405 33.3646 290.259 33.7812C289.113 34.1771 287.696 34.5312 286.009 34.8438C284.321 35.1562 282.321 35.3125 280.009 35.3125C277.592 35.3125 275.54 35.0104 273.853 34.4062C272.165 33.8021 270.79 32.9583 269.728 31.875C268.665 30.7917 267.894 29.4896 267.415 27.9688C266.936 26.4479 266.696 24.7812 266.696 22.9688C266.696 20.5521 267.082 18.5417 267.853 16.9375C268.623 15.3333 269.675 14.0521 271.009 13.0938C272.363 12.1146 273.946 11.4271 275.759 11.0312C277.592 10.6354 279.561 10.4375 281.665 10.4375C285.998 10.4375 289.238 11.2708 291.384 12.9375C293.55 14.5833 294.634 16.9479 294.634 20.0312C294.634 20.3229 294.613 20.6458 294.571 21C294.53 21.3542 294.467 21.6979 294.384 22.0312C294.321 22.3438 294.238 22.6146 294.134 22.8438C294.05 23.0521 293.967 23.1562 293.884 23.1562H284.696L269.196 22.8438C269.238 24.7812 269.488 26.4271 269.946 27.7812C270.425 29.1146 271.113 30.2083 272.009 31.0625C272.925 31.8958 274.05 32.5104 275.384 32.9062C276.717 33.2812 278.269 33.4688 280.04 33.4688Z" fill="black"/>
</svg>
