<svg width="48" height="48" viewBox="0 0 48 48" fill="none" xmlns="http://www.w3.org/2000/svg">
<g clip-path="url(#clip0_7410_58497)">
<path d="M44 0H4C1.79086 0 0 1.79086 0 4V44C0 46.2091 1.79086 48 4 48H44C46.2091 48 48 46.2091 48 44V4C48 1.79086 46.2091 0 44 0Z" fill="black"/>
<mask id="mask0_7410_58497" style="mask-type:luminance" maskUnits="userSpaceOnUse" x="12" y="6" width="24" height="30">
<path d="M36 6.42188H12V35.4745H36V6.42188Z" fill="white"/>
</mask>
<g mask="url(#mask0_7410_58497)">
<path d="M32.0442 21.8566C32.0856 26.2532 35.9566 27.7164 35.9994 27.735C35.9668 27.838 35.381 29.82 33.96 31.867C32.7318 33.6368 31.457 35.4002 29.4488 35.4366C27.4756 35.4726 26.8412 34.2832 24.5852 34.2832C22.3298 34.2832 21.625 35.4002 19.757 35.4726C17.8186 35.545 16.3425 33.5588 15.1041 31.7954C12.5734 28.1884 10.6394 21.603 13.2362 17.1577C14.5263 14.9502 16.8317 13.5522 19.334 13.5164C21.2376 13.4806 23.0342 14.7789 24.1978 14.7789C25.3606 14.7789 27.544 13.2176 29.8392 13.4469C30.8 13.4863 33.4972 13.8295 35.229 16.3287C35.0896 16.414 32.0108 18.1809 32.0442 21.8566ZM28.3358 11.0606C29.365 9.8325 30.0576 8.1229 29.8686 6.42188C28.3852 6.48065 26.5914 7.39638 25.5274 8.62378C24.574 9.71068 23.7388 11.4504 23.9642 13.1177C25.6176 13.2438 27.3066 12.2894 28.3358 11.0606Z" fill="white"/>
</g>
</g>
<defs>
<clipPath id="clip0_7410_58497">
<rect width="48" height="48" fill="white"/>
</clipPath>
</defs>
</svg>
