<svg width="22" height="21" viewBox="0 0 22 21" fill="none" xmlns="http://www.w3.org/2000/svg">
<path fill-rule="evenodd" clip-rule="evenodd" d="M7.66667 19.6654C8.58714 19.6654 9.33333 18.9192 9.33333 17.9987C9.33333 17.0782 8.58714 16.332 7.66667 16.332C6.74619 16.332 6 17.0782 6 17.9987C6 18.9192 6.74619 19.6654 7.66667 19.6654Z" stroke-width="2" stroke-linecap="round" stroke-linejoin="round"/>
<path fill-rule="evenodd" clip-rule="evenodd" d="M17.6667 19.6654C18.5871 19.6654 19.3333 18.9192 19.3333 17.9987C19.3333 17.0782 18.5871 16.332 17.6667 16.332C16.7462 16.332 16 17.0782 16 17.9987C16 18.9192 16.7462 19.6654 17.6667 19.6654Z" stroke-width="2" stroke-linecap="round" stroke-linejoin="round"/>
<path d="M5.72565 5.4987H20.1673L18.7673 12.4904C18.61 13.2822 17.9078 13.8475 17.1006 13.832H8.29232C7.45022 13.8392 6.7351 13.217 6.62565 12.382L5.35898 2.78203C5.25034 1.95336 4.54475 1.3333 3.70898 1.33203H1.83398" stroke-width="2" stroke-linecap="round" stroke-linejoin="round"/>
</svg>
