<svg width="19" height="19" viewBox="0 0 19 19" xmlns="http://www.w3.org/2000/svg">
<path d="M0.292893 0.292893C0.683417 -0.0976311 1.31658 -0.0976311 1.70711 0.292893L18.3738 16.9596C18.7643 17.3501 18.7643 17.9832 18.3738 18.3738C17.9832 18.7643 17.3501 18.7643 16.9596 18.3738L0.292893 1.70711C-0.0976311 1.31658 -0.0976311 0.683417 0.292893 0.292893Z"/>
<path d="M18.3738 0.292893C18.7643 0.683417 18.7643 1.31658 18.3738 1.70711L1.70711 18.3738C1.31658 18.7643 0.683417 18.7643 0.292893 18.3738C-0.0976311 17.9832 -0.0976311 17.3501 0.292893 16.9596L16.9596 0.292893C17.3501 -0.0976311 17.9832 -0.0976311 18.3738 0.292893Z"/>
</svg>
