<svg width="20" height="19" viewBox="0 0 20 19" xmlns="http://www.w3.org/2000/svg">
<path fill-rule="evenodd" clip-rule="evenodd" d="M0 5.99959V2C0 0.89543 0.89543 0 2 0H18C19.1046 0 20 0.895432 20 2V6C20 7.06087 19.5786 8.07828 18.8284 8.82843C18.5791 9.07778 18.3002 9.29081 18 9.46411V17C18 18.1046 17.1046 19 16 19H4C2.89543 19 2 18.1046 2 17V9.4641C1.68768 9.28378 1.40051 9.06166 1.1467 8.80333C0.777168 8.42721 0.485648 7.98175 0.288902 7.49256C0.0980173 7.01795 -6.95998e-07 6.51127 0 6C0 5.99986 0 5.99972 0 5.99959ZM2 6C2 5.99215 2.00005 5.9843 2.00014 5.97644L2 5.97644L2 2L18 2V6C18 6.53043 17.7893 7.03914 17.4142 7.41421C17.0391 7.78929 16.5304 8 16 8C15.4696 8 14.9609 7.78929 14.5858 7.41421C14.2107 7.03914 14 6.53043 14 6H12C12 6.53043 11.7893 7.03914 11.4142 7.41421C11.0391 7.78929 10.5304 8 10 8C9.46957 8 8.96086 7.78929 8.58579 7.41421C8.21071 7.03914 8 6.53043 8 6H6C6 6.26363 5.94788 6.52467 5.84663 6.76809C5.74538 7.0115 5.59701 7.2325 5.41004 7.41837C5.22308 7.60424 5.00121 7.75131 4.7572 7.85112C4.51319 7.95093 4.25185 8.00152 3.98822 7.99997C3.72459 7.99841 3.46387 7.94475 3.22105 7.84207C2.97823 7.7394 2.75811 7.58972 2.57335 7.40166C2.38858 7.21361 2.24282 6.99088 2.14445 6.74628C2.04901 6.50898 2 6.25563 2 6ZM13.1716 8.82843C13.9217 9.57857 14.9391 10 16 10V17H4V10C4.51927 10 5.03364 9.89889 5.5144 9.70224C6.00242 9.50262 6.44615 9.20848 6.82009 8.83674C6.88221 8.77498 6.94221 8.71128 7 8.64575C7.05511 8.70824 7.11231 8.76917 7.17157 8.82843C7.92172 9.57857 8.93913 10 10 10C11.0609 10 12.0783 9.57857 12.8284 8.82843C12.8877 8.76917 12.9449 8.70824 13 8.64576C13.0551 8.70824 13.1123 8.76917 13.1716 8.82843Z" strokeWidth="0"/>
</svg>
