<svg width="44" height="48" viewBox="0 0 44 48" fill="none" xmlns="http://www.w3.org/2000/svg">
<g clip-path="url(#clip0_7410_58505)">
<path d="M35.6234 24C35.6253 26.7357 34.6616 29.3842 32.9021 31.4791C31.1427 33.5739 28.7004 34.9806 26.0055 35.4514C23.3107 35.9221 20.5361 35.4267 18.1707 34.0524C15.8053 32.6781 14.0007 30.5131 13.075 27.9388L6.42578 33.2581C8.49331 37.1884 11.8181 40.3125 15.8692 42.1318C19.9204 43.951 24.4643 44.3604 28.7753 43.2945C33.0864 42.2287 36.9161 39.7491 39.6528 36.2518C42.3895 32.7544 43.8755 28.4409 43.8734 24" fill="#00AC47"/>
<path d="M35.6235 24C35.622 25.8495 35.1786 27.6719 34.3302 29.3153C33.4818 30.9587 32.253 32.3757 30.7461 33.448L37.3197 38.7069C39.381 36.851 41.0295 34.5829 42.1585 32.0495C43.2875 29.516 43.8717 26.7736 43.8735 24" fill="#4285F4"/>
<path d="M12.375 24.0001C12.3779 22.6563 12.6153 21.3234 13.0765 20.0612L6.42735 14.7419C4.91547 17.5937 4.125 20.7723 4.125 24.0001C4.125 27.2278 4.91547 30.4065 6.42735 33.2582L13.0765 27.9389C12.6153 26.6768 12.3779 25.3439 12.375 24.0001Z" fill="#FFBA00"/>
<path d="M23.9984 12.375C26.4582 12.3757 28.8535 13.1618 30.8354 14.6187L36.9254 8.93476C34.6647 6.9856 31.993 5.57215 29.1097 4.7999C26.2264 4.02764 23.2059 3.91652 20.2736 4.47482C17.3413 5.03313 14.573 6.24644 12.1752 8.02421C9.77739 9.80199 7.81203 12.0983 6.42578 14.7419L13.075 20.0612C13.8859 17.8132 15.3694 15.8695 17.3238 14.4943C19.2782 13.1191 21.6087 12.3792 23.9984 12.375Z" fill="#EA4435"/>
<path d="M43.875 22.5V24L40.5 29.25H24.75V21H42.375C42.7728 21 43.1544 21.158 43.4357 21.4393C43.717 21.7206 43.875 22.1022 43.875 22.5Z" fill="#4285F4"/>
</g>
<defs>
<clipPath id="clip0_7410_58505">
<rect width="48" height="48" fill="white"/>
</clipPath>
</defs>
</svg>
