<svg width="23" height="23" viewBox="0 0 23 23" fill="none" xmlns="http://www.w3.org/2000/svg">
<path d="M20.2918 3.26815C19.8031 2.70759 19.2229 2.26292 18.5843 1.95954C17.9456 1.65615 17.2611 1.5 16.5699 1.5C15.8786 1.5 15.1941 1.65615 14.5555 1.95954C13.9168 2.26292 13.3366 2.70759 12.8479 3.26815L11.8337 4.43095L10.8195 3.26815C9.83241 2.1364 8.49359 1.50059 7.09759 1.50059C5.7016 1.50059 4.36278 2.1364 3.37566 3.26815C2.38854 4.39989 1.83398 5.93487 1.83398 7.53541C1.83398 9.13594 2.38854 10.6709 3.37566 11.8027L11.8337 21.5L20.2918 11.8027C20.7807 11.2424 21.1686 10.5771 21.4332 9.84495C21.6978 9.11276 21.834 8.32797 21.834 7.53541C21.834 6.74285 21.6978 5.95806 21.4332 5.22587C21.1686 4.49368 20.7807 3.82844 20.2918 3.26815Z" stroke-width="2" stroke-linecap="round" stroke-linejoin="round"/>
</svg>
