<svg width="20" height="18" viewBox="0 0 20 18" fill="none" xmlns="http://www.w3.org/2000/svg">
<path d="M19.732 6.384C19.732 7.776 19.388 8.952 18.7 9.912C18.028 10.872 16.868 11.568 15.22 12C15.412 12.256 15.548 12.456 15.628 12.6L19.516 18H12.988C12.284 16.688 11.172 14.832 9.652 12.432H6.124V18H0.46C0.588 14.896 0.652 11.992 0.652 9.288C0.652 6.584 0.588 3.68 0.46 0.576H6.124V0.599999H11.044C14.276 0.599999 16.532 1.12 17.812 2.16C19.092 3.2 19.732 4.608 19.732 6.384ZM6.124 5.208V7.944H9.364C10.724 7.944 11.748 7.904 12.436 7.824C13.14 7.728 13.628 7.584 13.9 7.392C14.172 7.2 14.308 6.92 14.308 6.552C14.308 6.2 14.18 5.928 13.924 5.736C13.668 5.544 13.188 5.408 12.484 5.328C11.78 5.248 10.74 5.208 9.364 5.208H6.124Z"/>
</svg>
