<svg width="20" height="21" viewBox="0 0 20 21" xmlns="http://www.w3.org/2000/svg">
<path fill-rule="evenodd" clip-rule="evenodd" d="M14 2.5H17C17.5523 2.5 18 2.94771 18 3.5V17.5C18 18.0523 17.5523 18.5 17 18.5H3C2.44772 18.5 2 18.0523 2 17.5V3.5C2 2.94772 2.44771 2.5 3 2.5H6V5.5C6 7.15685 7.34315 8.5 9 8.5H11C12.6569 8.5 14 7.15685 14 5.5V2.5ZM12 2.5H8V5.5C8 6.05228 8.44772 6.5 9 6.5H11C11.5523 6.5 12 6.05228 12 5.5V2.5ZM14 0.5H17C18.6569 0.5 20 1.84315 20 3.5V17.5C20 19.1569 18.6569 20.5 17 20.5H3C1.34315 20.5 0 19.1569 0 17.5V3.5C0 1.84315 1.34315 0.5 3 0.5H6H8H12H14Z" strokeWidth="0"/>
</svg>
