<svg width="22" height="22" viewBox="0 0 22 22" fill="none" xmlns="http://www.w3.org/2000/svg">
<path fill-rule="evenodd" clip-rule="evenodd" d="M9.88889 2C5.53198 2 2 5.53198 2 9.88889C2 14.2458 5.53198 17.7778 9.88889 17.7778C12.0174 17.7778 13.9491 16.9348 15.3682 15.5645C15.3958 15.5279 15.4263 15.4929 15.4596 15.4596C15.4929 15.4263 15.5279 15.3958 15.5645 15.3682C16.9348 13.9491 17.7778 12.0174 17.7778 9.88889C17.7778 5.53198 14.2458 2 9.88889 2ZM17.5529 16.1387C18.9436 14.4352 19.7778 12.2595 19.7778 9.88889C19.7778 4.42741 15.3504 0 9.88889 0C4.42741 0 0 4.42741 0 9.88889C0 15.3504 4.42741 19.7778 9.88889 19.7778C12.2595 19.7778 14.4352 18.9436 16.1387 17.5529L20.2929 21.7071C20.6834 22.0976 21.3166 22.0976 21.7071 21.7071C22.0976 21.3166 22.0976 20.6834 21.7071 20.2929L17.5529 16.1387Z" fill="black"/>
</svg>
