<svg width="24" height="24" viewBox="0 0 24 24" fill="none" xmlns="http://www.w3.org/2000/svg">
<path fill-rule="evenodd" clip-rule="evenodd" d="M12 2C9.28417 2 8.94362 2.01151 7.87702 2.06018C6.81263 2.10872 6.0857 2.27779 5.44963 2.52501C4.79203 2.78053 4.23436 3.12246 3.67839 3.67839C3.12246 4.23436 2.78052 4.79203 2.52501 5.44962C2.27779 6.0857 2.10873 6.81264 2.06018 7.87702C2.01151 8.94363 2 9.28417 2 12.0001C2 14.7158 2.01151 15.0564 2.06018 16.123C2.10873 17.1874 2.27779 17.9144 2.52501 18.5504C2.78052 19.208 3.12246 19.7657 3.67839 20.3216C4.23436 20.8776 4.79203 21.2195 5.44963 21.4751C6.0857 21.7222 6.81263 21.8913 7.87702 21.9399C8.94362 21.9885 9.28417 22 12 22C14.7159 22 15.0564 21.9885 16.123 21.9399C17.1874 21.8913 17.9143 21.7222 18.5504 21.4751C19.208 21.2195 19.7656 20.8776 20.3216 20.3216C20.8776 19.7657 21.2195 19.208 21.4751 18.5504C21.7222 17.9144 21.8913 17.1874 21.9398 16.123C21.9885 15.0564 22 14.7158 22 12.0001C22 9.28417 21.9885 8.94363 21.9398 7.87702C21.8913 6.81264 21.7222 6.0857 21.4751 5.44962C21.2195 4.79203 20.8776 4.23436 20.3216 3.67839C19.7656 3.12246 19.208 2.78053 18.5504 2.52501C17.9143 2.27779 17.1874 2.10872 16.123 2.06018C15.0564 2.01151 14.7159 2 12 2ZM8.66668 12.0001C8.66668 13.841 10.1591 15.3334 12 15.3334C13.841 15.3334 15.3334 13.841 15.3334 12.0001C15.3334 10.159 13.841 8.66668 12 8.66668C10.1591 8.66668 8.66668 10.159 8.66668 12.0001ZM6.86487 12.0001C6.86487 9.16393 9.16394 6.86487 12 6.86487C14.8361 6.86487 17.1351 9.16393 17.1351 12.0001C17.1351 14.8361 14.8361 17.1351 12 17.1351C9.16394 17.1351 6.86487 14.8361 6.86487 12.0001ZM17.338 7.86198C18.0008 7.86198 18.5381 7.32474 18.5381 6.66199C18.5381 5.99924 18.0008 5.46197 17.338 5.46197C16.6753 5.46197 16.1381 5.99924 16.1381 6.66199C16.1381 7.32474 16.6753 7.86198 17.338 7.86198Z"/>
</svg>
