<svg width="24" height="24" viewBox="0 0 24 24" fill="none" xmlns="http://www.w3.org/2000/svg">
<path d="M21.1244 3.16185C21.1244 3.16185 23.1596 2.36828 22.99 4.29553C22.9334 5.08911 22.4247 7.86661 22.0289 10.8709L20.6722 19.7702C20.6722 19.7702 20.5591 21.074 19.5415 21.3007C18.5239 21.5274 16.9976 20.5071 16.7149 20.2804C16.4887 20.1104 12.475 17.5596 11.0617 16.3125C10.6659 15.9724 10.2137 15.2922 11.1182 14.4986L17.0541 8.83027C17.7325 8.15005 18.4109 6.5629 15.5842 8.49016L7.66972 13.8751C7.66972 13.8751 6.76521 14.4419 5.06927 13.9318L1.39465 12.7981C1.39465 12.7981 0.0378717 11.9479 2.3557 11.0976C8.00894 8.43343 14.9624 5.7126 21.1244 3.16185Z"/>
</svg>
