<svg width="24" height="24" viewBox="0 0 24 24" fill="none" xmlns="http://www.w3.org/2000/svg">
<path d="M14.3217 12.155C13.9194 12.0037 13.9194 11.4261 13.8944 11.0238C13.7939 9.59086 14.2967 7.40326 13.6933 6.47318C13.2661 5.91964 11.204 5.97033 9.94727 6.04596C9.59487 6.09665 9.16765 6.17147 8.86594 6.32273C8.56423 6.47399 8.26252 6.72501 8.26252 6.95109C8.26252 7.27774 9.01719 7.22786 9.29316 7.65508C9.59487 8.10805 9.59487 9.08801 9.59487 9.89257C9.59487 10.8226 9.44361 12.0552 9.06708 12.1051C8.4886 12.1301 8.16194 11.5516 7.86023 11.1244C7.25681 10.2948 6.65339 9.2634 6.20042 8.2577C5.97434 7.72991 5.84803 7.15143 5.52137 6.92535C5.01852 6.57295 4.11339 6.54801 3.2332 6.57295C2.42864 6.59789 1.27168 6.49732 1.0456 6.97523C0.869401 7.50302 1.24674 8.00587 1.44788 8.4339C2.47852 10.6714 3.5848 12.6329 4.9429 14.493C6.20042 16.2277 7.38152 17.6107 9.69463 18.3397C10.3487 18.5408 13.2146 19.1193 13.7931 18.3397C13.9942 18.0379 13.9443 17.3589 14.0449 16.856C14.1455 16.3532 14.271 15.8503 14.7489 15.8254C15.1512 15.8005 15.3773 16.1521 15.6291 16.4039C15.9058 16.6807 16.1319 16.9067 16.3331 17.1586C16.811 17.6365 17.3138 18.2898 17.9173 18.5416C18.7468 18.894 20.0292 18.7934 21.2361 18.7427C22.2168 18.7178 22.9208 18.5167 22.9964 17.9382C23.0471 17.4852 22.5435 16.8319 22.2418 16.4546C21.4871 15.5245 21.1355 15.2477 20.2802 14.3925C19.9029 14.0151 19.425 13.6129 19.425 13.1607C19.4001 12.8839 19.6261 12.6329 19.8273 12.3561C20.7075 11.0487 21.5877 10.1186 22.3922 8.76055C22.6183 8.35827 23.1469 7.4282 22.9458 6.97523C22.7197 6.47238 21.4621 6.62283 20.6825 6.62283C19.6768 6.62283 18.3694 6.5472 18.1176 6.74834C17.6397 7.07499 17.4385 7.60359 17.2125 8.10644C16.7096 9.2634 16.0306 10.4445 15.3266 11.3247C15.0747 11.6264 14.5976 12.2548 14.3209 12.1542L14.3217 12.155Z" />
</svg>
